PathFileType	4	(X/Y/Z)	C:\Users\WrightLab\Desktop\Jo\P1.2Trial21.trc
DataRate	CameraRate	NumFrames	NumMarkers	Units	OrigDataRate	OrigDataStartFrame	OrigNumFrames
100.00	100.00	       6	19	mm	100.00	413	       660
Frame#	Time	Headset_Front			Headset_Back			Headset_Left			Headset_Right			Left_Shoulder			Right_Shoulder			Sternum			C7			Left Elbow			Right Elbow			Left Wrist			Right Wrist			Left ASIS			Right ASIS			S2			Left Knee			Right Knee			Left Ankle			Right Ankle			
		X1	Y1	Z1	X2	Y2	Z2	X3	Y3	Z3	X4	Y4	Z4	X5	Y5	Z5	X6	Y6	Z6	X7	Y7	Z7	X8	Y8	Z8	X9	Y9	Z9	X10	Y10	Z10	X11	Y11	Z11	X12	Y12	Z12	X13	Y13	Z13	X14	Y14	Z14	X15	Y15	Z15	X16	Y16	Z16	X17	Y17	Z17	X18	Y18	Z18	X19	Y19	Z19	

413	4.120	47.48413	1436.77832	1628.54651				189.64264	1499.83545	1485.85779	-38.63673	1460.65710	1506.79639	320.60052	1286.71399	1399.14417	-103.37318	1274.10388	1418.12427	119.25707	1233.43250	1546.69556	100.62659	1331.22656	1303.98108	374.61066	1001.41046	1344.67004	-166.48373	1018.55310	1408.96716	471.88138	803.38544	1429.55066	-177.64279	776.32709	1535.71521	266.25058	924.21051	1551.66968	-16.44118	902.71582	1574.75916	121.58932	925.12158	1279.85095	329.13306	525.74084	1655.81982	21.86892	472.20819	1561.91187	350.57532	256.53986	1376.31421	108.71947	138.19577	1543.53931	
414	4.130	45.72709	1438.33423	1635.08398				189.21371	1500.24475	1494.74182	-39.11223	1462.17688	1513.26392	320.53821	1287.94348	1407.32922	-104.37632	1276.62463	1426.45020	117.20757	1234.07227	1553.53552	101.13116	1331.70386	1311.86975	375.87897	1002.60767	1354.18665	-167.15990	1020.17865	1419.10120	472.15170	804.27545	1440.89404	-177.03333	780.21124	1553.39331	264.04135	925.66895	1562.97119	-18.53057	904.11884	1581.77136	122.49532	925.98816	1288.90417	325.27365	531.59631	1673.30615	17.63671	470.19092	1564.26807	354.01248	253.01413	1405.78357	106.99140	137.93118	1544.64429	
415	4.140	43.89992	1440.16138	1643.78882				188.56903	1501.50989	1503.52527	-40.26648	1464.22974	1521.02417	319.33502	1288.47144	1416.84009	-105.75089	1278.36938	1434.20154	115.50283	1235.42200	1561.46460	100.98020	1332.71045	1320.35498	376.22327	1002.90924	1363.48413	-168.39008	1021.58789	1429.64417	472.20074	805.15356	1451.03259	-176.03386	784.94849	1570.36121	261.85117	927.46973	1575.10083	-20.84557	905.07385	1588.63049	124.67716	926.12799	1298.33154	324.12244	538.97791	1694.85022	13.57542	468.59045	1565.51147	356.45038	247.10333	1435.71460	106.93655	137.31734	1544.37964	
416	4.150	41.68850	1441.14758	1649.26160				187.47128	1501.83496	1512.39148	-40.97387	1465.91895	1527.36914	319.49652	1289.53149	1427.09900	-105.58389	1278.80640	1440.22729	113.94633	1236.80042	1571.46899	100.70300	1332.93066	1328.64697	375.95587	1003.52924	1371.74597	-170.27205	1023.58136	1439.97095	472.65118	805.51056	1462.21582	-175.25125	789.43787	1586.18054	258.94025	928.37122	1586.41504	-23.05213	906.14478	1595.89539	125.39139	926.98083	1308.03455	317.80768	543.84277	1707.17151	9.18012	467.15451	1567.79944	358.39133	241.59077	1466.47083	104.90059	138.71912	1544.91565	
417	4.160	39.81148	1443.09473	1657.94006				187.32370	1502.12695	1521.30920	-41.70138	1467.20679	1535.08350	318.88373	1290.11792	1436.01233	-107.11784	1280.81616	1449.14209	112.60781	1237.30554	1579.00659	100.77960	1333.74939	1336.96851	376.92349	1004.68701	1381.76563	-171.03165	1024.82336	1449.50452	472.50684	806.23401	1472.20264	-174.71228	794.27258	1602.39429	256.91794	929.86475	1598.28992	-24.79368	906.75964	1601.58789	126.92350	927.57080	1317.33081	313.21771	549.33124	1723.34753	5.42787	465.79306	1570.75854	360.41910	235.47791	1497.53333	104.68011	138.36671	1544.83191	
418	4.170	37.89408	1443.96411	1665.33215				186.69519	1502.14587	1529.31372	-43.08669	1468.90027	1542.41235	317.95145	1290.16394	1445.44788	-107.19180	1281.25879	1456.20313	110.66898	1238.24951	1587.69336	100.61632	1333.58911	1345.04626	376.45190	1004.46985	1390.51636	-172.97102	1026.70410	1455.55066	471.45633	806.42786	1483.48315	-174.01167	798.52643	1618.17847	254.33408	929.99982	1608.85962	-26.44267	906.98627	1607.16370	129.08093	927.02667	1326.67566	308.27057	554.90045	1739.42810	1.53727	464.14511	1571.18689	360.91492	228.39264	1529.78943	104.22710	138.96063	1545.12585	
